<svg width="115" height="12" viewBox="0 0 115 12" fill="none" xmlns="http://www.w3.org/2000/svg">
<path d="M8.528 11V9.352H3.792C6.656 7.192 8.464 5.432 8.464 3.464C8.464 1.336 6.656 0.167999 4.592 0.167999C3.104 0.167999 1.6 0.743999 0.656 1.88L1.744 3.112C2.416 2.344 3.376 1.832 4.624 1.832C5.6 1.832 6.56 2.344 6.56 3.464C6.56 5 4.944 6.392 0.8 9.528V11H8.528ZM18.553 11.192C21.545 11.192 22.825 8.36 22.825 5.672C22.825 2.984 21.545 0.167999 18.553 0.167999C15.561 0.167999 14.281 2.984 14.281 5.672C14.281 8.36 15.561 11.192 18.553 11.192ZM18.553 9.528C16.809 9.528 16.185 7.704 16.185 5.672C16.185 3.64 16.809 1.832 18.553 1.832C20.297 1.832 20.921 3.64 20.921 5.672C20.921 7.704 20.297 9.528 18.553 9.528ZM28.4124 11.192C31.4044 11.192 32.6844 8.36 32.6844 5.672C32.6844 2.984 31.4044 0.167999 28.4124 0.167999C25.4204 0.167999 24.1404 2.984 24.1404 5.672C24.1404 8.36 25.4204 11.192 28.4124 11.192ZM28.4124 9.528C26.6684 9.528 26.0444 7.704 26.0444 5.672C26.0444 3.64 26.6684 1.832 28.4124 1.832C30.1564 1.832 30.7804 3.64 30.7804 5.672C30.7804 7.704 30.1564 9.528 28.4124 9.528ZM38.2718 11.192C41.2638 11.192 42.5438 8.36 42.5438 5.672C42.5438 2.984 41.2638 0.167999 38.2718 0.167999C35.2798 0.167999 33.9998 2.984 33.9998 5.672C33.9998 8.36 35.2798 11.192 38.2718 11.192ZM38.2718 9.528C36.5278 9.528 35.9038 7.704 35.9038 5.672C35.9038 3.64 36.5278 1.832 38.2718 1.832C40.0158 1.832 40.6398 3.64 40.6398 5.672C40.6398 7.704 40.0158 9.528 38.2718 9.528ZM52.2405 11.192C55.2325 11.192 56.5125 8.36 56.5125 5.672C56.5125 2.984 55.2325 0.167999 52.2405 0.167999C49.2485 0.167999 47.9685 2.984 47.9685 5.672C47.9685 8.36 49.2485 11.192 52.2405 11.192ZM52.2405 9.528C50.4965 9.528 49.8725 7.704 49.8725 5.672C49.8725 3.64 50.4965 1.832 52.2405 1.832C53.9845 1.832 54.6085 3.64 54.6085 5.672C54.6085 7.704 53.9845 9.528 52.2405 9.528ZM62.0999 11.192C65.0919 11.192 66.3719 8.36 66.3719 5.672C66.3719 2.984 65.0919 0.167999 62.0999 0.167999C59.1079 0.167999 57.8279 2.984 57.8279 5.672C57.8279 8.36 59.1079 11.192 62.0999 11.192ZM62.0999 9.528C60.3559 9.528 59.7319 7.704 59.7319 5.672C59.7319 3.64 60.3559 1.832 62.0999 1.832C63.8439 1.832 64.4679 3.64 64.4679 5.672C64.4679 7.704 63.8439 9.528 62.0999 9.528ZM71.9593 11.192C74.9513 11.192 76.2313 8.36 76.2313 5.672C76.2313 2.984 74.9513 0.167999 71.9593 0.167999C68.9673 0.167999 67.6873 2.984 67.6873 5.672C67.6873 8.36 68.9673 11.192 71.9593 11.192ZM71.9593 9.528C70.2153 9.528 69.5913 7.704 69.5913 5.672C69.5913 3.64 70.2153 1.832 71.9593 1.832C73.7033 1.832 74.3273 3.64 74.3273 5.672C74.3273 7.704 73.7033 9.528 71.9593 9.528ZM84.728 11.192C86.808 11.192 87.944 10.152 87.944 8.792C87.944 5.72 83.272 6.744 83.272 5.368C83.272 4.824 83.832 4.424 84.712 4.424C85.672 4.424 86.536 4.824 87 5.352L87.704 4.168C87 3.544 86.008 3.08 84.696 3.08C82.744 3.08 81.656 4.168 81.656 5.432C81.656 8.392 86.328 7.304 86.328 8.824C86.328 9.432 85.816 9.864 84.808 9.864C83.8 9.864 82.728 9.336 82.184 8.776L81.416 9.992C82.216 10.776 83.416 11.192 84.728 11.192ZM93.1229 11.192C95.6029 11.192 97.1069 9.352 97.1069 7.128C97.1069 4.92 95.6029 3.08 93.1229 3.08C90.6749 3.08 89.1549 4.92 89.1549 7.128C89.1549 9.352 90.6749 11.192 93.1229 11.192ZM93.1229 9.704C91.6989 9.704 90.8989 8.504 90.8989 7.128C90.8989 5.768 91.6989 4.568 93.1229 4.568C94.5629 4.568 95.3629 5.768 95.3629 7.128C95.3629 8.504 94.5629 9.704 93.1229 9.704ZM98.2345 2.888C98.2345 3.816 98.8265 4.344 99.4825 4.344C100.075 4.344 100.571 3.848 100.571 3.256C100.571 2.664 100.155 2.248 99.6105 2.248C99.5145 2.248 99.3865 2.264 99.3385 2.28C99.4505 1.736 99.9785 1.08 100.491 0.775999L99.7385 0.167999C98.8585 0.792 98.2345 1.784 98.2345 2.888ZM113.709 11V5.416C113.709 3.848 112.909 3.08 111.485 3.08C110.333 3.08 109.309 3.8 108.861 4.504C108.605 3.656 107.901 3.08 106.749 3.08C105.581 3.08 104.557 3.848 104.237 4.328V3.272H102.557V11H104.237V5.608C104.589 5.096 105.277 4.568 106.013 4.568C106.925 4.568 107.293 5.128 107.293 5.96V11H108.973V5.592C109.309 5.096 110.013 4.568 110.765 4.568C111.661 4.568 112.029 5.128 112.029 5.96V11H113.709Z" fill="#ECB559"/>
<path d="M0 5.672H114.797V6.472H0V5.672Z" fill="#ECB559"/>
</svg>
