<svg width="30" height="30" viewBox="0 0 30 30" fill="none" xmlns="http://www.w3.org/2000/svg">
<path d="M21.875 26.25C20.7147 26.25 19.6019 25.7891 18.7814 24.9686C17.9609 24.1481 17.5 23.0353 17.5 21.875C17.5 20.7147 17.9609 19.6019 18.7814 18.7814C19.6019 17.9609 20.7147 17.5 21.875 17.5C23.0353 17.5 24.1481 17.9609 24.9686 18.7814C25.7891 19.6019 26.25 20.7147 26.25 21.875C26.25 23.0353 25.7891 24.1481 24.9686 24.9686C24.1481 25.7891 23.0353 26.25 21.875 26.25ZM8.125 12.5C7.55047 12.5 6.98156 12.3868 6.45076 12.167C5.91996 11.9471 5.43766 11.6248 5.03141 11.2186C4.62515 10.8123 4.30289 10.33 4.08303 9.79924C3.86316 9.26844 3.75 8.69953 3.75 8.125C3.75 7.55047 3.86316 6.98156 4.08303 6.45076C4.30289 5.91996 4.62515 5.43766 5.03141 5.03141C5.43766 4.62515 5.91996 4.30289 6.45076 4.08303C6.98156 3.86316 7.55047 3.75 8.125 3.75C9.28532 3.75 10.3981 4.21094 11.2186 5.03141C12.0391 5.85188 12.5 6.96468 12.5 8.125C12.5 9.28532 12.0391 10.3981 11.2186 11.2186C10.3981 12.0391 9.28532 12.5 8.125 12.5ZM23.8387 4.39375L25.6063 6.16125L6.1625 25.6063L4.395 23.8387L23.8375 4.39375H23.8387Z" fill="#ECB559"/>
</svg>
