<svg width="30" height="30" viewBox="0 0 30 30" fill="none" xmlns="http://www.w3.org/2000/svg">
<path d="M24.9225 9.99988H26.25C26.913 9.99988 27.5489 10.2633 28.0178 10.7321C28.4866 11.2009 28.75 11.8368 28.75 12.4999V17.4999C28.75 18.1629 28.4866 18.7988 28.0178 19.2676C27.5489 19.7365 26.913 19.9999 26.25 19.9999H24.9225C24.6178 22.4165 23.4416 24.6389 21.6147 26.2499C19.7878 27.8609 17.4358 28.7498 15 28.7499V26.2499C16.9891 26.2499 18.8968 25.4597 20.3033 24.0532C21.7098 22.6467 22.5 20.739 22.5 18.7499V11.2499C22.5 9.26075 21.7098 7.3531 20.3033 5.94657C18.8968 4.54005 16.9891 3.74988 15 3.74988C13.0109 3.74988 11.1032 4.54005 9.6967 5.94657C8.29018 7.3531 7.5 9.26075 7.5 11.2499V19.9999H3.75C3.08696 19.9999 2.45107 19.7365 1.98223 19.2676C1.51339 18.7988 1.25 18.1629 1.25 17.4999V12.4999C1.25 11.8368 1.51339 11.2009 1.98223 10.7321C2.45107 10.2633 3.08696 9.99988 3.75 9.99988H5.0775C5.38254 7.58349 6.55885 5.36147 8.38572 3.75072C10.2126 2.13997 12.5644 1.25122 15 1.25122C17.4356 1.25122 19.7874 2.13997 21.6143 3.75072C23.4411 5.36147 24.6175 7.58349 24.9225 9.99988ZM3.75 12.4999V17.4999H5V12.4999H3.75ZM25 12.4999V17.4999H26.25V12.4999H25ZM9.7 19.7311L11.025 17.6111C12.2163 18.3574 13.5942 18.7521 15 18.7499C16.4058 18.7521 17.7837 18.3574 18.975 17.6111L20.3 19.7311C18.7116 20.7263 16.8744 21.2528 15 21.2499C13.1256 21.2528 11.2884 20.7263 9.7 19.7311Z" fill="#00B533"/>
</svg>
