<svg width="30" height="30" viewBox="0 0 30 30" fill="none" xmlns="http://www.w3.org/2000/svg">
<path d="M15 27.5C8.09621 27.5 2.49995 21.9038 2.49995 15C2.49995 8.09625 8.09621 2.5 15 2.5C21.9037 2.5 27.5 8.09625 27.5 15C27.5 21.9038 21.9037 27.5 15 27.5ZM15 25C17.6521 25 20.1957 23.9464 22.071 22.0711C23.9464 20.1957 25 17.6522 25 15C25 12.3478 23.9464 9.8043 22.071 7.92893C20.1957 6.05357 17.6521 5 15 5C12.3478 5 9.80425 6.05357 7.92889 7.92893C6.05352 9.8043 4.99995 12.3478 4.99995 15C4.99995 17.6522 6.05352 20.1957 7.92889 22.0711C9.80425 23.9464 12.3478 25 15 25ZM16.25 15H21.25V17.5H13.75V8.75H16.25V15Z" fill="#00B533"/>
</svg>
